<?xml version="1.0" encoding="UTF-8"?>
<svg xmlns="http://www.w3.org/2000/svg" xmlns:xlink="http://www.w3.org/1999/xlink" version="1.1" id="Layer_1" x="0px" y="0px" viewBox="0 0 190 84" style="enable-background:new 0 0 190 84;" xml:space="preserve"> <style type="text/css"> .st0{fill:none;} .st1{fill:#202020;} .st2{fill:#444294;} </style> <g> <rect x="16.94" y="15.59" class="st0" width="148.35" height="41.07"></rect> <path class="st1" d="M43.88,52.83h-8.33V38.24h-7.39v14.59h-8.33V17.85h8.33v13.23h7.39V17.85h8.33V52.83z"></path> <path class="st1" d="M67.68,52.83l-1.32-6.82H58.8l-1.32,6.82h-9.02l8.52-34.98h10.98l8.64,34.98H67.68z M65.07,38.86l-1.41-7.82 c-0.16-0.88-0.31-1.73-0.44-2.56c-0.14-0.83-0.25-1.62-0.36-2.38c-0.1-0.76-0.2-1.46-0.28-2.12c-0.06,0.62-0.15,1.31-0.25,2.06 c-0.1,0.75-0.23,1.54-0.37,2.36c-0.14,0.82-0.29,1.67-0.46,2.55l-1.48,7.92H65.07z"></path> <path class="st1" d="M105.14,34.6c0,3.88-0.59,7.17-1.76,9.88c-1.17,2.71-2.87,4.78-5.08,6.21s-4.91,2.14-8.09,2.14h-9.02V17.85 h9.59c3.06,0,5.66,0.65,7.8,1.94s3.76,3.18,4.88,5.67S105.14,31,105.14,34.6z M96.53,34.94c0-2.36-0.22-4.27-0.66-5.72 c-0.44-1.45-1.09-2.51-1.96-3.17c-0.87-0.66-1.96-0.99-3.27-0.99h-1.12v20.53h0.65c2.2,0,3.81-0.86,4.83-2.58 C96.02,41.28,96.53,38.59,96.53,34.94z"></path> <path class="st1" d="M127.96,52.83l-1.32-6.82h-7.56l-1.32,6.82h-9.02l8.52-34.98h10.98l8.64,34.98H127.96z M125.36,38.86 l-1.41-7.82c-0.16-0.88-0.31-1.73-0.44-2.56c-0.14-0.83-0.25-1.62-0.36-2.38c-0.1-0.76-0.2-1.46-0.28-2.12 c-0.06,0.62-0.15,1.31-0.25,2.06c-0.1,0.75-0.23,1.54-0.37,2.36c-0.14,0.82-0.29,1.67-0.46,2.55l-1.48,7.92H125.36z"></path> <path class="st1" d="M150.83,17.85c2.71,0,4.97,0.38,6.77,1.15c1.8,0.77,3.15,1.91,4.04,3.43c0.89,1.52,1.34,3.44,1.34,5.75 c0,1.36-0.18,2.61-0.53,3.76s-0.88,2.19-1.58,3.13c-0.7,0.94-1.59,1.78-2.66,2.51l7.3,15.24h-9.16l-5.48-13.14h-1.08v13.14h-8.33 V17.85H150.83z M150.74,24.82h-0.93v8.42h0.89c1.24,0,2.18-0.38,2.8-1.15c0.62-0.77,0.93-1.92,0.93-3.47 c0-1.28-0.31-2.23-0.92-2.86C152.89,25.13,151.97,24.82,150.74,24.82z"></path> </g> <g> <path class="st1" d="M66.42,66.5c0,1.22-0.25,2.24-0.76,3.06s-1.25,1.43-2.21,1.85c-0.96,0.41-2.13,0.62-3.51,0.62h-3.37V61.18 h3.74c1.26,0,2.35,0.2,3.26,0.6c0.91,0.4,1.61,1,2.11,1.79C66.17,64.36,66.42,65.34,66.42,66.5z M64.9,66.54 c0-0.97-0.19-1.78-0.56-2.41c-0.37-0.63-0.91-1.1-1.63-1.41c-0.72-0.31-1.59-0.46-2.63-0.46H58v8.69h1.76 c1.71,0,2.99-0.37,3.85-1.11S64.9,68,64.9,66.54z"></path> <path class="st1" d="M70.48,72.03V61.18h1.44v10.85H70.48z"></path> <path class="st1" d="M81.94,66.34h4.34v5.26c-0.65,0.19-1.32,0.34-2.01,0.43s-1.46,0.14-2.3,0.14c-1.29,0-2.38-0.23-3.26-0.68 c-0.89-0.45-1.56-1.09-2.02-1.92C76.23,68.74,76,67.75,76,66.6c0-1.12,0.25-2.1,0.76-2.94c0.51-0.84,1.24-1.49,2.2-1.95 c0.96-0.46,2.11-0.69,3.46-0.69c0.69,0,1.35,0.06,1.97,0.17c0.62,0.11,1.2,0.27,1.73,0.47l-0.55,1.1 c-0.46-0.17-0.96-0.32-1.51-0.45c-0.55-0.12-1.12-0.19-1.71-0.19c-1.01,0-1.88,0.18-2.6,0.55c-0.72,0.37-1.27,0.88-1.66,1.55 c-0.38,0.67-0.57,1.46-0.57,2.37c0,0.91,0.17,1.69,0.5,2.36c0.33,0.67,0.85,1.19,1.56,1.56c0.71,0.37,1.62,0.56,2.73,0.56 c0.56,0,1.04-0.03,1.44-0.08c0.4-0.06,0.77-0.12,1.1-0.2v-3.32h-2.89V66.34z"></path> <path class="st1" d="M90.58,72.03V61.18h1.44v10.85H90.58z"></path> <path class="st1" d="M100.55,72.03H99.1v-9.73h-3.9v-1.11h9.24v1.11h-3.89V72.03z"></path> <path class="st1" d="M115.4,72.03l-1.53-3.44h-4.97l-1.52,3.44h-1.46l4.86-10.89h1.3l4.82,10.89H115.4z M113.44,67.46l-1.45-3.42 c-0.03-0.09-0.09-0.23-0.17-0.44c-0.08-0.2-0.15-0.41-0.23-0.63c-0.08-0.22-0.14-0.39-0.2-0.53c-0.06,0.2-0.12,0.4-0.18,0.6 c-0.06,0.2-0.13,0.39-0.19,0.56s-0.12,0.32-0.16,0.43l-1.48,3.42H113.44z"></path> <path class="st1" d="M119.92,72.03V61.18h1.44v9.72h5.51v1.13H119.92z"></path> </g> <path class="st2" d="M171.25,48.82c0-1.9,1.5-3.4,3.5-3.4c1.9,0,3.5,1.5,3.5,3.4s-1.6,3.4-3.5,3.4 C172.65,52.22,171.25,50.72,171.25,48.82z"></path> </svg>
