<?xml version="1.0" encoding="UTF-8"?> <svg xmlns="http://www.w3.org/2000/svg" id="Layer_1" data-name="Layer 1" viewBox="0 0 115 115"><defs><style>.cls-1{fill:#5229c8;}.cls-2{fill:#fff;}.cls-3{fill:#202020;}</style></defs><title>icons_</title><path class="cls-1" d="M31.19,43.94a1.75,1.75,0,1,0-3.36,1c.86,2.84,6.36,21.08,7.24,24a1.75,1.75,0,0,0,3.36-1Z"></path><path class="cls-1" d="M55.8,73.21l.61,2L52,76.57l.69,2.29,4.45-1.34.61,2-4.45,1.34L54,83.17l4.45-1.34.61,2L54.56,85.2l.71,2.35,4.45-1.34.61,2-4.26,1.28c3,4.5,10,1.21,8.44-4L59.9,70.28l-9,2.72.46,1.55Z"></path><path class="cls-2" d="M74.54,24.51,34.89,48.88l.83,2.76L58.5,38.16,59.58,40,36.35,53.72l2.24,7.41L85,60.05ZM62.73,38.11l-1.07-1.82,3.47-2,1.07,1.82Z"></path><rect class="cls-3" x="22.25" y="59.62" width="2.11" height="2.82" transform="translate(-16.63 9.33) rotate(-16.78)"></rect><rect class="cls-3" x="85.02" y="28.69" width="5.4" height="2.11" transform="translate(0.19 60.03) rotate(-37.82)"></rect><rect class="cls-3" x="20.63" y="54.23" width="2.11" height="2.82" transform="translate(-15.14 8.63) rotate(-16.78)"></rect><rect class="cls-3" x="90.36" y="41.32" width="5.25" height="2.11" transform="translate(-4.89 13.02) rotate(-7.81)"></rect><rect class="cls-3" x="92.24" y="46.32" width="2.11" height="5.18" transform="translate(33.09 135.36) rotate(-82.81)"></rect><rect class="cls-3" x="88.4" y="34.34" width="5.22" height="2.11" transform="translate(-6.61 38.04) rotate(-22.8)"></rect><path class="cls-3" d="M75.79,21.26,34.26,46.79l-1-3.46a3.87,3.87,0,1,0-7.41,2.23l1,3.32c-1.78-.55-2.6-.07-7.81,1.5l.75,2.51,2-.61-.15-.48,3-.91A2.7,2.7,0,0,1,28,52.68L30.77,62A2.67,2.67,0,0,1,29,65.35l-3,.9-.45-1.48-2,.61c.4,1.34.66,2.18,1.06,3.51,5.29-1.6,6.17-1.64,7.34-3.07l1.13,3.74a3.86,3.86,0,1,0,7.4-2.23l-1.23-4.1,8.55-.2,2.4,8-1.92.57,5.22,17.3A6.82,6.82,0,1,0,66.53,85l-5.21-17.3-2.09.62-1.37-4.53-2,.61,1.37,4.53-5,1.52L50,63l37.89-.88Zm-15.89,49,4.61,15.28c1.56,5.16-5.46,8.45-8.44,4l4.26-1.28-.61-2-4.45,1.34-.71-2.35L59,83.86l-.61-2L54,83.17l-.69-2.29,4.45-1.34-.61-2-4.45,1.34L52,76.57l4.45-1.34-.61-2-4.45,1.34L50.89,73ZM35.07,69c-.88-2.92-6.38-21.16-7.24-24a1.75,1.75,0,1,1,3.36-1l7.24,24A1.75,1.75,0,0,1,35.07,69Zm3.52-7.82-2.24-7.41L59.58,40,58.5,38.16,35.72,51.64l-.83-2.76L74.54,24.51,85,60.05Z"></path><rect class="cls-3" x="61.91" y="35.12" width="4.03" height="2.11" transform="translate(-9.51 37.59) rotate(-30.61)"></rect></svg> 