<?xml version="1.0" encoding="UTF-8"?> <svg xmlns="http://www.w3.org/2000/svg" id="Layer_1" data-name="Layer 1" viewBox="0 0 115 115"><defs><style>.cls-1{fill:#5229c8;}.cls-2{fill:#202020;}.cls-3{fill:#fff;}</style></defs><title>icons_</title><path class="cls-1" d="M51.52,42.64H94.08V37.38a5.67,5.67,0,0,0-5.66-5.66H48.94a33.87,33.87,0,0,1,2.43,10.93Zm30.53-7a1.17,1.17,0,0,1,0-1.66,1.18,1.18,0,0,1,1.67,0l1.61,1.61L87,34a1.17,1.17,0,0,1,1.66,1.66L87,37.24l1.61,1.61A1.18,1.18,0,1,1,87,40.52l-1.62-1.61-1.61,1.61a1.18,1.18,0,1,1-1.67-1.67l1.61-1.61Zm-10.59-.48A1.18,1.18,0,0,1,72.64,34h4.2A1.18,1.18,0,0,1,78,35.14v4.2a1.18,1.18,0,0,1-1.18,1.18h-4.2a1.18,1.18,0,0,1-1.18-1.18Zm-9.41,3H67.4a1.18,1.18,0,1,1,0,2.36H62.05a1.18,1.18,0,0,1,0-2.36Z"></path><path class="cls-1" d="M32.81,42.65a34.48,34.48,0,0,1,2.43-10.94H26.58a5.67,5.67,0,0,0-5.66,5.66v5.26H32.81Z"></path><rect class="cls-1" x="73.82" y="36.32" width="1.84" height="1.84"></rect><path class="cls-1" d="M42.09,24.64a30.41,30.41,0,0,0-3.69,5.8h7.37A30.65,30.65,0,0,0,42.09,24.64Z"></path><path class="cls-2" d="M88.42,29.36H47.89c.2.4.39.81.58,1.25s.32.72.47,1.11H88.42a5.67,5.67,0,0,1,5.66,5.66v5.26h1.18a1.18,1.18,0,0,1,1.18,1.18V37.38A8,8,0,0,0,88.42,29.36Z"></path><path class="cls-2" d="M95.26,45H94.08V80.33A5.67,5.67,0,0,1,88.42,86H26.58a5.67,5.67,0,0,1-5.66-5.67V45H19.74a1.18,1.18,0,0,1-1.18-1.18V80.33a8,8,0,0,0,8,8H88.42a8,8,0,0,0,8-8V43.82A1.18,1.18,0,0,1,95.26,45Z"></path><path class="cls-2" d="M19.74,42.64h1.18V37.38a5.67,5.67,0,0,1,5.66-5.66h8.66c.16-.38.31-.75.47-1.1s.25-.55.38-.81a1.18,1.18,0,0,0-.92-.44H26.58a8,8,0,0,0-8,8v6.44A1.18,1.18,0,0,1,19.74,42.64Z"></path><path class="cls-2" d="M51.37,42.65c0,.76.06,1.55.05,2.35H94.08V42.64H51.37Z"></path><path class="cls-2" d="M95.26,42.64H94.08V45h1.18a1.18,1.18,0,0,0,0-2.36Z"></path><path class="cls-2" d="M32.77,45c0-.8,0-1.59,0-2.35H20.92V45H32.77Z"></path><path class="cls-2" d="M19.74,45h1.18V42.64H19.74a1.18,1.18,0,1,0,0,2.36Z"></path><path class="cls-3" d="M62.05,40.52H67.4a1.18,1.18,0,1,0,0-2.36H62.05a1.18,1.18,0,0,0,0,2.36Z"></path><path class="cls-3" d="M72.64,40.52h4.2A1.18,1.18,0,0,0,78,39.34v-4.2A1.18,1.18,0,0,0,76.84,34h-4.2a1.18,1.18,0,0,0-1.18,1.18v4.2A1.18,1.18,0,0,0,72.64,40.52Zm1.18-4.2h1.84v1.84H73.82Z"></path><path class="cls-3" d="M87,37.24l1.61-1.62A1.17,1.17,0,0,0,87,34l-1.62,1.61L83.72,34a1.18,1.18,0,0,0-1.67,0,1.17,1.17,0,0,0,0,1.66l1.61,1.62-1.61,1.61a1.18,1.18,0,1,0,1.67,1.67l1.61-1.61L87,40.52a1.18,1.18,0,0,0,1.66-1.67Z"></path><path class="cls-2" d="M28.78,60.31A1.17,1.17,0,0,0,30,61.48h4.15a1.18,1.18,0,0,0,0-2.36H31.19a11.44,11.44,0,0,1,2.67-5.83c-.24-1-.44-1.92-.59-2.85C31.08,52.63,28.71,56,28.78,60.31Z"></path><path class="cls-2" d="M50.08,59.12a1.18,1.18,0,0,0,0,2.36h4.15a1.18,1.18,0,0,0,1.18-1.17c.06-4.3-2.31-7.68-4.49-9.87q-.24,1.39-.6,2.85A11.36,11.36,0,0,1,53,59.12Z"></path><path class="cls-2" d="M36.67,30.44H38.4a30.41,30.41,0,0,1,3.69-5.8,30.65,30.65,0,0,1,3.68,5.8h1a1.17,1.17,0,0,1,1.11-1.08,29.92,29.92,0,0,0-5-7.34,1.17,1.17,0,0,0-1.67,0,29.82,29.82,0,0,0-5.17,7.78,1.13,1.13,0,0,1,.25.68A1.19,1.19,0,0,1,36.67,30.44Z"></path><path class="cls-2" d="M47.52,32.8h-.7A32.21,32.21,0,0,1,48,53a1.18,1.18,0,0,0,.85,1.43,1,1,0,0,0,.3,0,1.18,1.18,0,0,0,1.14-.89c0-.1,0-.2.07-.3a17.58,17.58,0,0,0-1.48-1.58A1.17,1.17,0,0,1,48.79,50a1.19,1.19,0,0,1,1.67,0l.46.45a36.55,36.55,0,0,0,.5-5.44,1.18,1.18,0,0,1-.05-2.35,33.87,33.87,0,0,0-2.43-10.93H48.7A1.19,1.19,0,0,1,47.52,32.8Z"></path><path class="cls-2" d="M33.84,43.82A1.18,1.18,0,0,1,32.77,45a35.27,35.27,0,0,0,.5,5.44l.46-.45a1.18,1.18,0,0,1,1.62,1.72,17.62,17.62,0,0,0-1.49,1.58c0,.1,0,.2.08.3A1.18,1.18,0,1,0,36.22,53,32,32,0,0,1,37.35,32.8h-.68a1.18,1.18,0,0,1-1.18-1.13,1,1,0,0,1-.25,0,34.48,34.48,0,0,0-2.43,10.94A1.19,1.19,0,0,1,33.84,43.82Z"></path><path class="cls-2" d="M46.78,30.44h.74a1.18,1.18,0,0,1,1.18,1.18v.1h.24c-.15-.39-.31-.76-.47-1.11s-.38-.85-.58-1.25A1.17,1.17,0,0,0,46.78,30.44Z"></path><path class="cls-2" d="M35.24,31.71a1,1,0,0,0,.25,0v-.05a1.18,1.18,0,0,1,.85-1.14,1.13,1.13,0,0,0-.25-.68c-.13.26-.26.53-.38.81S35.4,31.33,35.24,31.71Z"></path><path class="cls-2" d="M51.37,42.65A1.18,1.18,0,0,0,51.42,45C51.43,44.2,51.41,43.41,51.37,42.65Z"></path><path class="cls-2" d="M33.84,43.82a1.19,1.19,0,0,0-1-1.17c0,.76-.05,1.55,0,2.35A1.18,1.18,0,0,0,33.84,43.82Z"></path><path class="cls-2" d="M35.35,51.71A1.18,1.18,0,0,0,33.73,50l-.46.45c.15.93.35,1.88.59,2.85A17.62,17.62,0,0,1,35.35,51.71Z"></path><path class="cls-2" d="M50.46,50a1.19,1.19,0,0,0-1.67,0,1.17,1.17,0,0,0,.05,1.67,17.58,17.58,0,0,1,1.48,1.58q.36-1.45.6-2.85Z"></path><path class="cls-2" d="M37.35,32.8h9.47c-.34-.84-.69-1.63-1-2.36H38.4c-.2.39-.39.8-.57,1.22S37.5,32.42,37.35,32.8Z"></path><path class="cls-2" d="M47.52,32.8a1.19,1.19,0,0,0,1.18-1.08H48a1.18,1.18,0,0,1-1.18-1.18s0-.07,0-.1h-1c.36.73.71,1.52,1,2.36Z"></path><path class="cls-2" d="M48,31.72h.75v-.1a1.18,1.18,0,0,0-1.18-1.18h-.74s0,.06,0,.1A1.18,1.18,0,0,0,48,31.72Z"></path><path class="cls-2" d="M36.67,32.8h.68q.23-.57.48-1.14c.18-.42.37-.83.57-1.22H36.67a1.19,1.19,0,0,0-.33,0,.13.13,0,0,1,0,.06,1.18,1.18,0,0,1-.86,1.13A1.18,1.18,0,0,0,36.67,32.8Z"></path><path class="cls-2" d="M36.35,30.54a.13.13,0,0,0,0-.06,1.18,1.18,0,0,0-.85,1.14v.05A1.18,1.18,0,0,0,36.35,30.54Z"></path><path class="cls-2" d="M42.09,49.88a1.7,1.7,0,1,1-1.69,1.69A1.7,1.7,0,0,1,42.09,49.88Z"></path><path class="cls-2" d="M64.58,58.62H85.35a1.18,1.18,0,1,0,0-2.36H64.58a1.18,1.18,0,0,0,0,2.36Z"></path><path class="cls-2" d="M64.58,66.17H85.35a1.18,1.18,0,1,0,0-2.36H64.58a1.18,1.18,0,1,0,0,2.36Z"></path><path class="cls-2" d="M64.58,73.73H75a1.18,1.18,0,1,0,0-2.36H64.58a1.18,1.18,0,1,0,0,2.36Z"></path><path class="cls-2" d="M45.26,58.27a1.18,1.18,0,0,0-.72,1.51,8.42,8.42,0,0,1-2.44,9.15,8.5,8.5,0,0,1-2.46-9.15,1.18,1.18,0,0,0-2.22-.8c-2.17,6,1.66,10.79,4,12.46a1.19,1.19,0,0,0,1.38,0c2.32-1.67,6.15-6.42,4-12.46A1.17,1.17,0,0,0,45.26,58.27Z"></path><path class="cls-2" d="M45.18,73.45A1.18,1.18,0,0,0,44,74.63v4.45a1.18,1.18,0,0,0,2.36,0V74.63A1.18,1.18,0,0,0,45.18,73.45Z"></path><path class="cls-2" d="M51.35,65.22a1.18,1.18,0,0,0-1.18,1.18V81.16a1.18,1.18,0,0,0,2.36,0V66.4A1.18,1.18,0,0,0,51.35,65.22Z"></path><path class="cls-2" d="M39,73.35a1.18,1.18,0,0,0-1.18,1.18v7.73a1.18,1.18,0,1,0,2.36,0V74.53A1.18,1.18,0,0,0,39,73.35Z"></path><path class="cls-2" d="M32.84,65.29a1.18,1.18,0,0,0-1.18,1.18v9.75a1.18,1.18,0,0,0,2.36,0V66.47A1.18,1.18,0,0,0,32.84,65.29Z"></path><path class="cls-2" d="M42.09,45.14a.78.78,0,1,0-.78-.78A.78.78,0,0,0,42.09,45.14Z"></path><path class="cls-2" d="M42.09,46.07a1.7,1.7,0,1,0-1.69-1.69A1.7,1.7,0,0,0,42.09,46.07Zm0-2.49a.78.78,0,1,1-.78.78A.78.78,0,0,1,42.09,43.58Z"></path><path class="cls-2" d="M42.09,52.31a.78.78,0,1,0-.78-.78A.78.78,0,0,0,42.09,52.31Z"></path><path class="cls-2" d="M42.09,53.27a1.7,1.7,0,1,0-1.69-1.7A1.7,1.7,0,0,0,42.09,53.27Zm0-2.52a.78.78,0,1,1-.78.78A.78.78,0,0,1,42.09,50.75Z"></path><path class="cls-2" d="M42.09,38a.78.78,0,1,0-.78-.78A.78.78,0,0,0,42.09,38Z"></path><path class="cls-2" d="M42.09,38.87a1.69,1.69,0,1,0-1.69-1.69A1.69,1.69,0,0,0,42.09,38.87Zm0-2.46a.78.78,0,1,1-.78.78A.78.78,0,0,1,42.09,36.41Z"></path></svg> 