<?xml version="1.0" encoding="UTF-8"?> <svg xmlns="http://www.w3.org/2000/svg" id="Layer_1" data-name="Layer 1" viewBox="0 0 115 115"><defs><style>.cls-1{fill:#5229c8;}.cls-2{fill:#202020;}</style></defs><title>icons_</title><polygon class="cls-1" points="52.17 45.71 51.02 52.45 57.07 49.27 63.13 52.45 61.97 45.71 66.86 40.94 60.1 39.96 57.07 33.82 54.05 39.96 47.28 40.94 52.17 45.71"></polygon><rect class="cls-2" x="39.49" y="58.9" width="4.28" height="2.53" transform="translate(-30.35 47.06) rotate(-45)"></rect><rect class="cls-2" x="71.85" y="57.42" width="2.53" height="4.28" transform="translate(-20.7 69.15) rotate(-45)"></rect><rect class="cls-2" x="77.2" y="42.43" width="4.28" height="2.53"></rect><rect class="cls-2" x="70.37" y="26.81" width="4.28" height="2.53" transform="translate(1.39 59.5) rotate(-45)"></rect><polygon class="cls-2" points="81.03 81.08 81.03 69.37 33.11 69.37 33.11 81.08 35.65 81.08 35.65 71.9 56.38 71.9 56.38 74.15 58.91 74.15 58.91 71.9 78.5 71.9 78.5 81.08 81.03 81.08"></polygon><rect class="cls-2" x="56.38" y="77.53" width="2.53" height="3.38"></rect><rect class="cls-2" x="56.38" y="91.04" width="2.53" height="3.38"></rect><polygon class="cls-2" points="24.55 95.29 27.08 95.29 27.08 85.78 56.38 85.78 56.38 87.67 58.91 87.67 58.91 85.78 87.92 85.78 87.92 95.08 90.45 95.08 90.45 83.24 24.55 83.24 24.55 95.29"></polygon><rect class="cls-2" x="32.66" y="43.28" width="4.28" height="2.53"></rect><rect class="cls-2" x="55.38" y="19.71" width="2.53" height="4.28"></rect><path class="cls-2" d="M49.45,46.6l-1.8,10.48,9.42-4.95,9.42,4.95L64.69,46.6l7.62-7.43L61.78,37.64,57.07,28.1l-4.71,9.54L41.83,39.17ZM54.05,40l3-6.14,3,6.14,6.76,1L62,45.71l1.15,6.74-6-3.18-6,3.18,1.15-6.74-4.89-4.77Z"></path><rect class="cls-2" x="39.76" y="26.54" width="2.53" height="4.28" transform="translate(-8.26 37.41) rotate(-45)"></rect></svg> 